# AST/ASF file generated using VICON BodyLanguage
# -----------------------------------------------
:version 1.10
:name VICON
:units
  mass 1.0
  length 0.45
  angle deg
:documentation
   .ast/.asf automatically generated from VICON data using
   VICON BodyBuilder and BodyLanguage model FoxedUp or BRILLIANT.MOD
:root
   order TX TY TZ RX RY RZ
   axis XYZ
   position 0 0 0  
   orientation 0 0 0 
:bonedata
  begin
     id 1 
     name lhipjoint
     direction 0.650112 -0.723553 0.232005 
     length 2.45805 
     axis 0 0 0  XYZ
  end
  begin
     id 2 
     name lfemur
     direction 0.34202 -0.939693 0  
     length 7.00073  
     axis 0 0 20  XYZ
    dof rx ry rz
    limits (-160.0 20.0)
           (-70.0 70.0)
           (-60.0 70.0)
  end
  begin
     id 3 
     name ltibia
     direction 0.34202 -0.939693 0   
     length 7.8748   
     axis 0 0 20   XYZ
    dof rx
    limits (-10.0 170.0)
  end
  begin
     id 4 
     name lfoot
     direction 0.0542825 -0.14914 0.987325   
     length 1.75978   
     axis -90 7.62852e-016 20   XYZ
    dof rx rz
    limits (-45.0 90.0)
           (-70.0 20.0)
  end
  begin
     id 5 
     name ltoes
     direction 1.53509e-011 -4.21906e-011 1   
     length 0.893912   
     axis -90 7.62852e-016 20   XYZ
    dof rx
    limits (-90.0 20.0)
  end
  begin
     id 6 
     name rhipjoint
     direction -0.637897 -0.733345 0.235145   
     length 2.42522  
     axis 0 0 0  XYZ 
  end
  begin
     id 7 
     name rfemur
     direction -0.34202 -0.939693 0   
     length 7.02549   
     axis 0 0 -20   XYZ
    dof rx ry rz
    limits (-160.0 20.0)
           (-70.0 70.0)
           (-70.0 60.0)
  end
  begin
     id 8 
     name rtibia
     direction -0.34202 -0.939693 0   
     length 7.71512   
     axis 0 0 -20   XYZ
    dof rx
    limits (-10.0 170.0)
 end
 begin
     id 9 
     name rfoot
     direction -0.0822618 -0.226012 0.970645   
     length 1.90014  
     axis -90 -7.62852e-016 -20   XYZ
    dof rx rz
    limits (-45.0 90.0)
           (-20.0 70.0)
  end
  begin
     id 10 
     name rtoes
     direction -1.53542e-011 -4.21872e-011 1   
     length 0.957341   
     axis -90 -7.62852e-016 -20   XYZ
    dof rx
    limits (-90.0 20.0)
  end
  begin
     id 11 
     name lowerback
     direction -0.0022947 0.999774 -0.0211557   
     length 1.89909   
     axis 0 0 0   XYZ
    dof rx ry rz
    limits (-20.0 45.0)
           (-30.0 30.0)
           (-30.0 30.0)
  end
  begin
     id 12 
     name upperback
     direction 0.0107737 0.998635 0.0511027   
     length 1.8853   
     axis 0 0 0   XYZ
    dof rx ry rz
    limits (-20.0 45.0)
           (-30.0 30.0)
           (-30.0 30.0)
  end
  begin
     id 13 
     name thorax
     direction 0.011824 0.998136 0.0598754   
     length 1.88911   
     axis 0 0 0   XYZ
    dof rx ry rz
    limits (-20.0 45.0)
           (-30.0 30.0)
           (-30.0 30.0)
  end
  begin
     id 14 
     name lowerneck
     direction -0.0685355 0.990319 0.120714   
     length 1.91222   
     axis 0 0 0   XYZ
    dof rx ry rz
    limits (-20.0 45.0)
           (-30.0 30.0)
           (-30.0 30.0)
  end
  begin
     id 15 
     name upperneck
     direction 0.0886204 0.955665 -0.280805   
     length 1.92526   
     axis 0 0 0   XYZ
    dof rx ry rz
    limits (-20.0 45.0)
           (-30.0 30.0)
           (-30.0 30.0)
  end
  begin
     id 16
     name head
     direction 0.0233423 0.993502 -0.111393  
     length 1.96056  
     axis 0 0 0   XYZ
    dof rx ry rz
    limits (-20.0 45.0)
           (-30.0 30.0)
           (-30.0 30.0)
  end
  begin
     id 17 
     name lclavicle
     direction 0.941873 0.32922 0.0670041  
     length 3.31705  
     axis 0 0 0   XYZ
    dof ry rz
    limits (-20.0 10.0)
           (0.0 20.0)
  end
  begin
     id 18 
     name lhumerus
     direction 1 -4.4898e-011 3.38707e-028   
     length 5.29277   
     axis 180 -30 -90   XYZ
    dof rx ry rz
    limits (-60.0 90.0)
           (-90.0 90.0)
           (-90.0 90.0)
  end
  begin
     id 19
     name lradius
     direction 1 -4.48952e-011 1.63213e-028   
     length 2.85226   
     axis 180 -30 -90   XYZ
    dof rx
    limits (-10.0 170.0)
  end
  begin
     id 20
     name lwrist
     direction 1 -4.49001e-011 1.27856e-027   
     length 1.42613   
     axis -1.61767e-015 90 90   XYZ
    dof ry
    limits (-180.0 0.0)
 end
  begin
     id 21 
     name lhand
     direction 1 -4.48976e-011 2.55931e-027   
     length 0.602097   
     axis -1.63363e-015 90 90   XYZ
    dof rx rz
    limits (-90.0 90.0)
           (-45.0 45.0)
  end
  begin
     id 22 
     name lfingers
     direction 1 -4.48986e-011 5.11684e-027   
     length 0.485426   
     axis -3.26723e-015 90 90   XYZ
    dof rx
    limits (0.0 90.0)
  end
  begin
     id 23
     name lthumb
     direction 0.707107 -6.34915e-011 0.707107   
     length 0.696978   
     axis -90 45 -2.25915e-014   XYZ
    dof rx rz
    limits (-45.0 45.0)
           (-45.0 45.0)
  end
  begin
     id 24 
     name rclavicle
     direction -0.939974 0.327078 0.0973096   
     length 3.10337  
     axis 0 0 0   XYZ 
    dof ry rz
    limits (-10.0 20.0)
           (-20.0 0.0)
  end
  begin
     id 25 
     name rhumerus
     direction -1 -4.48975e-011 1.83745e-027  
     length 5.13304   
     axis 180 30 90   XYZ
    dof rx ry rz
    limits (-90.0 60.0)
           (-90.0 90.0)
           (-90.0 90.0)
  end
  begin
     id 26 
     name rradius
     direction -1 -4.48977e-011 7.1775e-029   
     length 2.74305   
     axis 180 30 90   XYZ
    dof rx
    limits (-10.0 170.0)
  end
  begin
     id 27 
     name rwrist
     direction -1 -4.48977e-011 1.27963e-027   
     length 1.37152   
     axis -1.61767e-015 -90 -90   XYZ
    dof ry
    limits (-180.0 0.0)
  end
  begin
     id 28
     name rhand
     direction -1 -4.4888e-011 2.56782e-027   
     length 0.767976   
     axis -1.63363e-015 -90 -90   XYZ
    dof rx rz
    limits (-90.0 90.0)
           (-45.0 45.0)
  end
  begin
     id 29
     name rfingers
     direction -1 -4.48947e-011 5.12384e-027   
     length 0.619162   
     axis -3.26723e-015 -90 -90   XYZ
    dof rx
    limits (0.0 90.0)
  end
  begin
     id 30
     name rthumb
     direction -0.707107 -6.34857e-011 0.707107   
     length 0.888997   
     axis -90 -45 2.25915e-014   XYZ
    dof rx rz
    limits (-45.0 45.0)
           (-45.0 45.0)
  end
:hierarchy
  begin
    root lhipjoint rhipjoint lowerback
    lhipjoint lfemur
    lfemur ltibia
    ltibia lfoot
    lfoot ltoes
    rhipjoint rfemur
    rfemur rtibia
    rtibia rfoot
    rfoot rtoes
    lowerback upperback
    upperback thorax
    thorax lowerneck lclavicle rclavicle
    lowerneck upperneck
    upperneck head
    lclavicle lhumerus
    lhumerus lradius
    lradius lwrist
    lwrist lhand lthumb
    lhand lfingers
    rclavicle rhumerus
    rhumerus rradius
    rradius rwrist
    rwrist rhand rthumb
    rhand rfingers
  end

#!OML:ASF F:\VICON\USERDATA\INSTALL\rory3\rory3.ASF
:FULLY-SPECIFIED
:DEGREES
1594
root -0.166613 16.4593 -1.50204 7.36977 11.015 2.17838
lowerback 20.9061 1.30466 2.63583
upperback 13.5574 2.29786 8.79262
thorax 2.90671 0.985271 7.64355
lowerneck -0.465898 -10.6137 -16.3523
upperneck 1.98581 -15.2862 28.9962
head 4.44087 -7.42413 11.151
rclavicle 1.43125e-014 -1.11319e-014
rhumerus 2.61032 22.2993 -20.5123
rradius 58.9851
rwrist 0.296371
rhand -1.04292 5.21792
rfingers 7.12502
rthumb 24.5911 -23.2226
lclavicle 1.43125e-014 -1.11319e-014
lhumerus 11.0197 42.2613 6.26033
lradius 108.228
lwrist 72.9131
lhand 28.987 27.5453
lfingers 7.12502
lthumb 52.7939 47.1673
rfemur -30.2868 -10.5941 17.0578
rtibia 48.5694
rfoot -32.3645 -3.52461
rtoes -5.22521
lfemur -39.1045 0.686898 -19.1115
ltibia 55.2818
lfoot -14.5235 -10.7951
ltoes -17.4169
1595
root -0.142932 16.503 -1.49739 7.75626 10.1767 2.03835
lowerback 20.9068 1.34316 2.31191
upperback 13.4322 2.28442 8.30299
thorax 2.76278 0.976905 7.27533
lowerneck -0.765187 -10.6051 -16.2329
upperneck 2.22036 -15.2921 28.8049
head 4.53271 -7.39772 11.0415
rclavicle -7.95139e-015 3.18055e-015
rhumerus 1.91282 22.2224 -19.197
rradius 59.8241
rwrist 0.752719
rhand -0.522859 4.60456
rfingers 7.12502
rthumb 25.0895 -23.7672
lclavicle -7.95139e-015 3.18055e-015
lhumerus 12.1309 43.368 8.40954
lradius 108.137
lwrist 74.3252
lhand 28.5768 27.9344
lfingers 7.12502
lthumb 52.423 47.7854
rfemur -30.469 -10.1082 17.1682
rtibia 47.7361
rfoot -31.8316 -3.15028
rtoes -5.01455
lfemur -38.987 0.734835 -19.0235
ltibia 54.5774
lfoot -14.6101 -9.98029
ltoes -18.1117
1596
root -0.117372 16.5436 -1.49157 8.11798 9.2914 1.92816
lowerback 20.8188 1.3213 1.57645
upperback 13.3443 2.12291 8.03319
thorax 2.70678 0.856861 7.42728
lowerneck -1.1779 -10.4394 -16.5791
upperneck 2.68206 -15.0877 28.3747
head 4.67331 -7.25911 10.9538
rclavicle 2.8625e-014 -7.95139e-015
rhumerus 2.03618 22.5102 -17.2515
rradius 60.4703
rwrist 1.19715
rhand -0.17778 4.01473
rfingers 7.12502
rthumb 25.4201 -24.3104
lclavicle 2.8625e-014 -7.95139e-015
lhumerus 12.4796 44.4547 10.3116
lradius 107.988
lwrist 75.8394
lhand 28.0444 28.442
lfingers 7.12502
lthumb 51.9404 48.583
rfemur -30.65 -9.69261 17.2307
rtibia 46.9933
rfoot -31.3983 -2.76331
rtoes -5.58965
lfemur -38.826 0.834959 -18.986
ltibia 53.9145
lfoot -14.4952 -9.1163
ltoes -17.6831
1597
root -0.0905471 16.577 -1.48607 8.45856 8.40824 1.63387
lowerback 20.5031 1.22377 0.911951
upperback 13.3513 1.85964 7.85262
thorax 2.89065 0.68085 7.66588
lowerneck -1.39636 -10.1761 -17.071
upperneck 2.94091 -14.7219 28.0315
head 4.70257 -7.06985 10.9578
rclavicle 9.54166e-015 -7.95139e-015
rhumerus 2.50984 22.6823 -15.1425
rradius 61.0887
rwrist 1.79111
rhand 0.452325 3.49976
rfingers 7.12502
rthumb 26.0236 -24.738
lclavicle 9.54166e-015 -7.95139e-015
lhumerus 12.2903 45.532 11.815
lradius 107.835
lwrist 77.5122
lhand 27.3695 28.7668
lfingers 7.12502
lthumb 51.3272 49.2637
rfemur -30.8858 -9.32384 17.5049
rtibia 46.3356
rfoot -30.9889 -2.39892
rtoes -6.45386
lfemur -38.6973 1.07508 -18.7839
ltibia 53.3365
lfoot -14.1509 -8.24048
ltoes -17.3408
1598
root -0.0636219 16.6038 -1.48447 8.81393 7.55911 1.31842
lowerback 20.2578 1.21756 0.768363
upperback 13.3301 1.80059 7.31565
thorax 2.99844 0.659593 7.16024
lowerneck -1.40323 -10.0942 -16.8838
upperneck 2.81364 -14.6011 28.0941
head 4.62873 -7.0178 10.9626
rclavicle -3.65764e-014 3.49861e-014
rhumerus 2.01283 22.5203 -13.8936
rradius 61.6036
rwrist 2.54874
rhand 1.02164 3.18531
rfingers 7.12502
rthumb 26.5686 -24.9712
lclavicle -3.65764e-014 3.49861e-014
lhumerus 13.6819 46.5643 14.0007
lradius 107.553
lwrist 79.32
lhand 26.5295 29.3165
lfingers 7.12502
lthumb 50.5616 50.2394
rfemur -31.1803 -9.05554 17.8341
rtibia 45.7385
rfoot -30.5975 -1.99757
rtoes -7.12876
lfemur -38.6209 1.24561 -18.542
ltibia 52.8122
lfoot -13.5638 -7.32037
ltoes -16.3582
1599
root -0.0373397 16.6208 -1.48618 9.17398 6.69694 0.827645
lowerback 20.2245 1.24016 0.837279
upperback 13.1958 1.82831 6.7687
thorax 2.8679 0.700787 6.50201
lowerneck -1.3997 -10.0616 -16.5135
upperneck 2.71889 -14.5574 28.1258
head 4.56316 -7.00017 10.9125
rclavicle 1.27222e-014 -2.8625e-014
rhumerus 1.23897 22.4527 -12.7716
rradius 62.0822
rwrist 3.43137
rhand 1.48723 3.08908
rfingers 7.12502
rthumb 27.0141 -24.9991
lclavicle 1.27222e-014 -2.8625e-014
lhumerus 15.516 47.486 16.4301
lradius 107.275
lwrist 81.3726
lhand 25.9436 29.9354
lfingers 7.12502
lthumb 50.026 51.1445
rfemur -31.5787 -8.8037 18.3868
rtibia 45.2035
rfoot -30.2492 -1.78045
rtoes -8.50116
lfemur -38.6058 1.4563 -18.0914
ltibia 52.3217
lfoot -12.9431 -6.43727
ltoes -14.5569
